<?xml version="1.0" encoding="utf-8"?>
<!-- Generator: Adobe Illustrator 24.2.1, SVG Export Plug-In . SVG Version: 6.00 Build 0)  -->
<svg version="1.1" id="Layer_1" xmlns="http://www.w3.org/2000/svg" xmlns:xlink="http://www.w3.org/1999/xlink" x="0px" y="0px"
	 viewBox="0 0 585.47 131.2" style="enable-background:new 0 0 585.47 131.2;" xml:space="preserve">
<style type="text/css">
	.st0{fill:#FFD31A;}
</style>
<g>
	<path class="st0" d="M102.17,80.31c0,0,0-22.27,0-34.19s-14.31-16.3-14.31-16.3s-9.14,0-20.67,0S55.26,45.33,55.26,45.33v11.14
		l-7.16-6.76V22.66c0,0-1.59-11.53,3.18-11.53s4.37,3.18,4.37,3.18v8.35h20.28l0.8-8.75C76.73,1.19,66.39,0,66.39,0H40.95
		C29.02,0,28.63,9.13,28.63,9.13V33.4l-4.37-1.98h-9.94C2.39,31.41,0,46.12,0,46.12s0,15.11,0,30.21
		c0,15.11,11.93,18.29,11.93,18.29s11.13,0,23.06,0s13.12-11.53,13.12-11.53v-9.94l3.97,1.19l3.58,11.93v21.07
		c0,9.54-3.97,8.35-3.97,8.35c-5.96,0-4.37-5.17-4.37-5.17v-5.96H26.24v11.93c0,12.32,9.54,14.71,9.54,14.71s11.53,0,25.44,0
		s16.3-13.52,16.3-13.52V92.04c0,0,0,0,12.92,0C103.37,92.04,102.17,80.31,102.17,80.31z M26.24,71.76c0,2.74-2.23,4.97-4.97,4.97
		s-4.97-2.23-4.97-4.97V52.28c0-2.74,2.23-4.97,4.97-4.97s4.97,2.23,4.97,4.97V71.76z M85.88,71.76c0,2.74-2.23,4.97-4.97,4.97
		s-4.97-2.23-4.97-4.97V52.28c0-2.74,2.23-4.97,4.97-4.97s4.97,2.23,4.97,4.97V71.76z"/>
	<g>
		<path d="M146.61,53.95h9.55v34.73h21.65v8.68h-31.2V53.95z"/>
		<path d="M181.84,78.75v-24.8h9.55v24.56c0,7.07,3.54,10.73,9.36,10.73c5.83,0,9.37-3.54,9.37-10.42V53.95h9.55v24.5
			c0,13.15-7.38,19.6-19.04,19.6S181.84,91.53,181.84,78.75z"/>
		<path d="M226.24,75.78v-0.12c0-12.34,9.3-22.45,22.64-22.45c8.19,0,13.09,2.73,17.12,6.7l-6.08,7.01c-3.35-3.04-6.76-4.9-11.1-4.9
			c-7.32,0-12.59,6.08-12.59,13.52v0.12c0,7.44,5.15,13.65,12.59,13.65c4.96,0,8-1.98,11.41-5.09l6.08,6.14
			c-4.47,4.78-9.43,7.75-17.8,7.75C235.73,98.11,226.24,88.24,226.24,75.78z"/>
		<path d="M272.7,53.95h9.55v18.98l17.61-18.98h11.54l-17.68,18.42l18.48,25h-11.48l-13.46-18.48l-5.02,5.21v13.27h-9.55
			L272.7,53.95L272.7,53.95z"/>
		<path d="M327.09,80.24l-16.68-26.3h11.16l10.36,17.43l10.55-17.43h10.85l-16.68,26.11v17.31h-9.55V80.24H327.09z"/>
		<path d="M375.4,53.95h17.74c10.36,0,16.62,6.14,16.62,15.01v0.12c0,10.05-7.82,15.26-17.55,15.26h-7.26v13.02h-9.55V53.95z
			 M392.52,75.84c4.78,0,7.57-2.85,7.57-6.57v-0.12c0-4.28-2.98-6.57-7.75-6.57h-7.38v13.27L392.52,75.84L392.52,75.84z"/>
		<path d="M415.59,53.95h9.55v34.73h21.65v8.68h-31.2L415.59,53.95L415.59,53.95z"/>
		<path d="M467.63,53.64h8.81l18.61,43.73h-9.99l-3.97-9.74h-18.36l-3.97,9.74h-9.74L467.63,53.64z M477.68,79.19l-5.77-14.08
			l-5.77,14.08H477.68z"/>
		<path d="M499.2,90.11l23.88-27.79h-23.13v-8.37h35.42v7.26L511.49,89h23.88v8.37H499.2V90.11z"/>
		<path d="M558.05,53.64h8.81l18.61,43.73h-9.99l-3.97-9.74h-18.36l-3.97,9.74h-9.74L558.05,53.64z M568.1,79.19l-5.77-14.08
			l-5.77,14.08H568.1z"/>
	</g>
</g>
</svg>
