<?xml version="1.0" encoding="utf-8"?>
<!-- Generator: Adobe Illustrator 24.2.1, SVG Export Plug-In . SVG Version: 6.00 Build 0)  -->
<svg version="1.1" id="Layer_1" xmlns="http://www.w3.org/2000/svg" xmlns:xlink="http://www.w3.org/1999/xlink" x="0px" y="0px"
	 viewBox="0 0 466.92 605.24" style="enable-background:new 0 0 466.92 605.24;" xml:space="preserve">
<style type="text/css">
	.st0{fill:#E5C717;}
	.st1{fill:#FFFFFF;}
	.st2{opacity:0.98;}
</style>
<g>
	<g id="Rectangle_2">
		<rect x="34.62" class="st0" width="432.31" height="582"/>
	</g>
	<g>
		<rect x="34.62" y="15.61" class="st1" width="320.71" height="57.98"/>
	</g>
	<g>
		<g>
			<path d="M113.61,257.39l0.18,0.56c0.25,14.5-4.18,26-13.28,34.51c-9.1,8.51-21.73,12.77-37.89,12.77
				c-16.22,0-29.39-5.21-39.5-15.64c-10.12-10.42-15.17-23.84-15.17-40.25v-26.74c0-16.34,4.93-29.76,14.8-40.25
				c9.87-10.48,22.7-15.73,38.49-15.73c16.65,0,29.67,4.27,39.04,12.81c9.37,8.54,13.94,20.19,13.69,34.93l-0.19,0.56H87.52
				c0-8.88-2.13-15.68-6.38-20.4c-4.26-4.72-10.89-7.08-19.89-7.08c-8.08,0-14.49,3.28-19.24,9.84c-4.75,6.56-7.12,14.93-7.12,25.09
				v26.9c0,10.29,2.5,18.72,7.49,25.28c5,6.56,11.75,9.84,20.26,9.84c8.45,0,14.69-2.27,18.73-6.8c4.04-4.53,6.06-11.27,6.06-20.22
				H113.61z"/>
		</g>
		<g>
			<path d="M149.63,249.44v53.85h-27.02V168.58h50.79c15.36,0,27.37,3.5,36.04,10.5c8.66,7,13,16.76,13,29.28
				c0,6.97-1.82,12.95-5.46,17.95c-3.64,5-8.97,9.04-16.01,12.12c7.96,2.34,13.68,6.26,17.16,11.75c3.48,5.49,5.23,12.27,5.23,20.35
				v9.9c0,3.76,0.51,7.69,1.53,11.8c1.02,4.1,2.76,7.14,5.23,9.11v1.94h-27.85c-2.47-1.97-4.07-5.27-4.81-9.9s-1.11-9-1.11-13.14
				v-9.53c0-6.72-1.84-11.95-5.5-15.68c-3.67-3.73-8.84-5.6-15.5-5.6H149.63z M149.63,228.62h23.31c7.59,0,13.24-1.6,16.98-4.81
				c3.73-3.21,5.6-7.96,5.6-14.25c0-6.17-1.87-11.07-5.6-14.71c-3.73-3.64-9.24-5.46-16.51-5.46h-23.78V228.62z"/>
		</g>
		<g>
			<path d="M320.27,244.07h-55.79v38.39h65.22v20.82h-92.24V168.58h92.05v20.82h-65.04v33.86h55.79V244.07z"/>
		</g>
		<g>
			<path d="M242.59,424.24h-47.28l-9.16,29.05h-27.29l46.35-134.71h27.66l46.17,134.71h-27.29L242.59,424.24z M201.98,403.05h33.95
				l-16.65-52.92h-0.56L201.98,403.05z"/>
		</g>
		<g>
			<path d="M355.33,339.4h-38.12v113.89h-27.02V339.4h-37.93v-20.82h103.06V339.4z"/>
		</g>
		<g>
			<path d="M388.67,453.29h-27.01V318.58h27.01V453.29z"/>
		</g>
		<g>
			<path d="M57.64,567.49l1.67,7.31h0.56l1.57-7.12l29.33-99.09h28.49l-45.8,134.71H45.7L0,468.59h28.5L57.64,567.49z"/>
		</g>
		<g>
			<path d="M204.86,544.08h-55.79v38.39h65.22v20.82h-92.24V468.59h92.05v20.82h-65.04v33.86h55.79V544.08z"/>
		</g>
		<g>
			<path d="M293.16,568.14c0-5.18-1.84-9.34-5.5-12.49c-3.67-3.15-10.1-6.11-19.29-8.88c-16.04-4.63-28.16-10.11-36.36-16.47
				c-8.2-6.35-12.3-15.05-12.3-26.09c0-11.04,4.7-20.06,14.11-27.06c9.4-7,21.42-10.5,36.04-10.5c14.8,0,26.86,3.93,36.17,11.8
				c9.31,7.86,13.82,17.56,13.51,29.1l-0.19,0.56h-26.18c0-6.23-2.08-11.27-6.24-15.13c-4.16-3.85-10.01-5.78-17.53-5.78
				c-7.22,0-12.8,1.6-16.75,4.81c-3.95,3.21-5.92,7.31-5.92,12.31c0,4.56,2.11,8.31,6.34,11.24c4.22,2.93,11.52,6.03,21.88,9.3
				c14.86,4.13,26.12,9.59,33.77,16.38c7.65,6.79,11.47,15.7,11.47,26.74c0,11.53-4.55,20.63-13.65,27.29
				c-9.1,6.66-21.11,9.99-36.04,9.99c-14.68,0-27.48-3.78-38.39-11.33c-10.92-7.55-16.22-18.15-15.91-31.78l0.19-0.56h26.27
				c0,8.02,2.45,13.89,7.35,17.62c4.9,3.73,11.73,5.6,20.49,5.6c7.34,0,12.95-1.51,16.84-4.53
				C291.22,577.24,293.16,573.2,293.16,568.14z"/>
		</g>
	</g>
	<g class="st2">
		<path d="M128.04,58.54c1.14-1.66,2.54-2.95,4.2-3.88c1.66-0.93,3.49-1.39,5.5-1.39c3.78,0,6.75,1.26,8.91,3.78
			c2.16,2.52,3.24,6.4,3.24,11.66v21.54h-9.8V68.59c0-2.83-0.5-4.83-1.49-6c-1-1.18-2.48-1.77-4.45-1.77
			c-1.34,0-2.53,0.24-3.56,0.72c-1.03,0.48-1.88,1.16-2.55,2.04v26.67h-9.8V37.9h9.8V58.54z"/>
		<path d="M174.8,90.25c-0.36-0.83-0.67-1.7-0.92-2.62c-0.26-0.92-0.44-1.86-0.55-2.82c-1.01,1.77-2.33,3.23-3.98,4.4
			c-1.64,1.16-3.61,1.74-5.89,1.74c-3.8,0-6.73-0.98-8.79-2.94c-2.06-1.96-3.09-4.63-3.09-8c0-3.56,1.37-6.31,4.11-8.27
			c2.74-1.96,6.74-2.94,12-2.94h5.47v-2.89c0-1.75-0.46-3.1-1.38-4.06c-0.92-0.96-2.27-1.44-4.06-1.44c-1.59,0-2.81,0.39-3.67,1.16
			s-1.29,1.84-1.29,3.2l-9.46-0.03l-0.03-0.2c-0.16-3.06,1.17-5.71,3.99-7.94c2.82-2.23,6.52-3.34,11.11-3.34
			c4.34,0,7.86,1.1,10.57,3.31s4.06,5.34,4.06,9.41v15c0,1.7,0.13,3.3,0.39,4.8c0.26,1.5,0.67,2.99,1.22,4.46H174.8z M165.84,83.71
			c1.72,0,3.26-0.42,4.6-1.27c1.34-0.85,2.25-1.83,2.72-2.95v-5.13h-5.47c-2.08,0-3.66,0.52-4.73,1.56
			c-1.07,1.04-1.61,2.3-1.61,3.77c0,1.21,0.4,2.18,1.21,2.92C163.36,83.34,164.45,83.71,165.84,83.71z"/>
		<path d="M195.58,53.94l0.44,5.2c1.21-1.86,2.7-3.3,4.46-4.33c1.77-1.03,3.75-1.54,5.94-1.54c3.67,0,6.53,1.15,8.59,3.46
			s3.09,5.92,3.09,10.84v22.69h-9.83v-22.7c0-2.44-0.49-4.18-1.48-5.2s-2.47-1.53-4.46-1.53c-1.3,0-2.46,0.26-3.49,0.79
			c-1.03,0.53-1.89,1.27-2.58,2.24v26.4h-9.8V53.94H195.58z"/>
		<path d="M241.27,80.25c0-1.07-0.52-2-1.56-2.79c-1.04-0.78-2.97-1.48-5.79-2.08c-4.29-0.87-7.53-2.16-9.71-3.88
			c-2.18-1.71-3.27-4.04-3.27-7c0-3.13,1.31-5.79,3.94-7.97s6.15-3.27,10.55-3.27c4.63,0,8.32,1.09,11.06,3.26s4.05,4.91,3.94,8.22
			l-0.07,0.2h-9.46c0-1.45-0.46-2.64-1.39-3.56c-0.93-0.92-2.29-1.38-4.08-1.38c-1.59,0-2.84,0.39-3.74,1.16s-1.36,1.74-1.36,2.9
			c0,1.12,0.48,2.04,1.43,2.75c0.95,0.72,2.88,1.35,5.79,1.91c4.47,0.9,7.8,2.21,9.97,3.94c2.17,1.73,3.25,4.12,3.25,7.16
			c0,3.27-1.4,5.93-4.19,8c-2.8,2.07-6.49,3.1-11.07,3.1c-4.83,0-8.65-1.22-11.46-3.67s-4.14-5.24-4.01-8.37l0.07-0.2h8.96
			c0.07,1.95,0.7,3.36,1.91,4.23s2.79,1.31,4.73,1.31c1.81,0,3.19-0.36,4.14-1.07C240.79,82.46,241.27,81.48,241.27,80.25z"/>
		<path d="M274.6,90.25c-0.36-0.83-0.67-1.7-0.92-2.62c-0.26-0.92-0.44-1.86-0.55-2.82c-1.01,1.77-2.33,3.23-3.98,4.4
			c-1.64,1.16-3.61,1.74-5.89,1.74c-3.8,0-6.73-0.98-8.79-2.94c-2.06-1.96-3.09-4.63-3.09-8c0-3.56,1.37-6.31,4.11-8.27
			c2.74-1.96,6.74-2.94,12-2.94h5.47v-2.89c0-1.75-0.46-3.1-1.38-4.06c-0.92-0.96-2.27-1.44-4.06-1.44c-1.59,0-2.81,0.39-3.67,1.16
			s-1.29,1.84-1.29,3.2l-9.46-0.03l-0.03-0.2c-0.16-3.06,1.17-5.71,3.99-7.94c2.82-2.23,6.52-3.34,11.11-3.34
			c4.34,0,7.86,1.1,10.57,3.31s4.06,5.34,4.06,9.41v15c0,1.7,0.13,3.3,0.39,4.8c0.26,1.5,0.67,2.99,1.22,4.46H274.6z M265.64,83.71
			c1.72,0,3.26-0.42,4.6-1.27c1.34-0.85,2.25-1.83,2.72-2.95v-5.13h-5.47c-2.08,0-3.66,0.52-4.73,1.56
			c-1.07,1.04-1.61,2.3-1.61,3.77c0,1.21,0.4,2.18,1.21,2.92C263.16,83.34,264.26,83.71,265.64,83.71z"/>
		<path d="M295.39,53.94l0.44,5.2c1.21-1.86,2.7-3.3,4.46-4.33c1.77-1.03,3.75-1.54,5.94-1.54c3.67,0,6.53,1.15,8.59,3.46
			s3.09,5.92,3.09,10.84v22.69h-9.83v-22.7c0-2.44-0.49-4.18-1.48-5.2s-2.47-1.53-4.46-1.53c-1.3,0-2.46,0.26-3.49,0.79
			c-1.03,0.53-1.89,1.27-2.58,2.24v26.4h-9.8V53.94H295.39z"/>
		<path d="M332.31,90.25h-9.8v-8.59h9.8V90.25z"/>
		<path d="M338.47,68.61l2.82-27.22h27.25v7.85h-19.23l-1.34,11.28c0.89-0.67,1.98-1.23,3.25-1.66c1.28-0.44,2.69-0.67,4.23-0.69
			c4.7-0.07,8.34,1.35,10.92,4.26c2.58,2.91,3.88,6.96,3.88,12.15c0,4.7-1.42,8.6-4.25,11.71c-2.83,3.11-6.91,4.66-12.23,4.66
			c-4.5,0-8.34-1.23-11.54-3.69c-3.2-2.46-4.74-5.84-4.63-10.13l0.07-0.17l9.43-0.47c0,2.17,0.62,3.87,1.85,5.08
			c1.23,1.22,2.84,1.83,4.83,1.83c2.28,0,3.96-0.81,5.05-2.43c1.08-1.62,1.63-3.73,1.63-6.35c0-2.81-0.58-5.07-1.75-6.77
			c-1.16-1.7-2.89-2.55-5.17-2.55c-1.88,0-3.32,0.35-4.31,1.04c-1,0.69-1.71,1.63-2.13,2.82L338.47,68.61z"/>
		<path d="M392.27,90.25h-9.8v-40.2h-9.93v-6.91l19.73-1.75V90.25z"/>
		<path d="M397.4,68.61l2.82-27.22h27.25v7.85h-19.23l-1.34,11.28c0.89-0.67,1.98-1.23,3.25-1.66c1.28-0.44,2.69-0.67,4.23-0.69
			c4.7-0.07,8.34,1.35,10.92,4.26c2.58,2.91,3.88,6.96,3.88,12.15c0,4.7-1.42,8.6-4.25,11.71c-2.83,3.11-6.91,4.66-12.23,4.66
			c-4.5,0-8.34-1.23-11.54-3.69c-3.2-2.46-4.74-5.84-4.63-10.13l0.07-0.17l9.43-0.47c0,2.17,0.62,3.87,1.85,5.08
			c1.23,1.22,2.84,1.83,4.83,1.83c2.28,0,3.96-0.81,5.05-2.43c1.08-1.62,1.63-3.73,1.63-6.35c0-2.81-0.58-5.07-1.75-6.77
			c-1.16-1.7-2.89-2.55-5.17-2.55c-1.88,0-3.32,0.35-4.31,1.04c-1,0.69-1.71,1.63-2.13,2.82L397.4,68.61z"/>
	</g>
	<g>
		<path d="M314.16,106.04c0-0.26-0.1-0.48-0.29-0.65s-0.54-0.32-1.04-0.44c-0.6-0.14-1.07-0.35-1.41-0.63
			c-0.34-0.28-0.51-0.63-0.51-1.05c0-0.44,0.18-0.81,0.54-1.11c0.36-0.3,0.83-0.45,1.41-0.45c0.62,0,1.12,0.17,1.49,0.51
			c0.37,0.34,0.55,0.74,0.53,1.19l-0.01,0.02h-0.73c0-0.33-0.11-0.6-0.33-0.81c-0.22-0.21-0.54-0.31-0.95-0.31
			c-0.38,0-0.68,0.09-0.88,0.26c-0.2,0.17-0.31,0.4-0.31,0.68c0,0.25,0.11,0.45,0.33,0.62c0.22,0.17,0.58,0.31,1.08,0.44
			c0.6,0.15,1.05,0.37,1.37,0.66s0.47,0.65,0.47,1.07c0,0.46-0.19,0.83-0.56,1.11s-0.86,0.42-1.47,0.42c-0.57,0-1.07-0.15-1.51-0.46
			c-0.44-0.31-0.65-0.72-0.63-1.24l0.01-0.02h0.73c0,0.36,0.13,0.64,0.4,0.83c0.27,0.19,0.6,0.29,1,0.29c0.39,0,0.7-0.08,0.92-0.24
			S314.16,106.32,314.16,106.04z"/>
		<path d="M315.76,105.32c0-0.63,0.17-1.14,0.51-1.54c0.34-0.4,0.8-0.61,1.38-0.61c0.59,0,1.05,0.2,1.39,0.61s0.51,0.92,0.51,1.55
			v0.09c0,0.63-0.17,1.15-0.51,1.55c-0.34,0.4-0.8,0.6-1.38,0.6c-0.58,0-1.04-0.2-1.38-0.6s-0.51-0.92-0.51-1.54V105.32z
			 M316.53,105.4c0,0.45,0.09,0.82,0.28,1.11c0.19,0.29,0.47,0.44,0.84,0.44c0.37,0,0.65-0.15,0.84-0.44
			c0.19-0.29,0.29-0.66,0.29-1.11v-0.09c0-0.44-0.1-0.81-0.29-1.1s-0.47-0.44-0.84-0.44c-0.37,0-0.65,0.15-0.83,0.44
			c-0.19,0.29-0.28,0.66-0.28,1.1V105.4z"/>
		<path d="M324.13,105.52c0,0.61-0.15,1.1-0.44,1.47c-0.29,0.37-0.69,0.56-1.21,0.56c-0.26,0-0.49-0.04-0.69-0.13
			c-0.2-0.09-0.36-0.22-0.5-0.39v2.07h-0.77v-5.85h0.59l0.12,0.55c0.14-0.2,0.31-0.36,0.52-0.46c0.21-0.11,0.45-0.16,0.72-0.16
			c0.52,0,0.93,0.21,1.22,0.62c0.29,0.42,0.44,0.96,0.44,1.65V105.52z M323.36,105.43c0-0.48-0.09-0.87-0.28-1.18
			c-0.19-0.31-0.47-0.46-0.83-0.46c-0.22,0-0.41,0.05-0.57,0.15s-0.28,0.24-0.38,0.41v2.04c0.1,0.17,0.22,0.31,0.38,0.41
			c0.16,0.1,0.35,0.15,0.57,0.15c0.37,0,0.64-0.13,0.83-0.4s0.28-0.61,0.28-1.03V105.43z"/>
		<path d="M325.89,103.81c0.15-0.2,0.32-0.36,0.54-0.47c0.21-0.11,0.45-0.17,0.71-0.17c0.45,0,0.8,0.14,1.05,0.41
			c0.25,0.27,0.38,0.69,0.38,1.25v2.65h-0.77v-2.66c0-0.35-0.08-0.61-0.22-0.77c-0.15-0.17-0.37-0.25-0.67-0.25
			c-0.21,0-0.41,0.05-0.58,0.15c-0.17,0.1-0.32,0.24-0.43,0.41v3.12h-0.77v-6.09h0.77V103.81z"/>
		<path d="M330.53,102.16h-0.77v-0.79h0.77V102.16z M330.53,107.47h-0.77v-4.23h0.77V107.47z"/>
		<path d="M334.22,106.34c0-0.17-0.06-0.31-0.19-0.42s-0.37-0.2-0.73-0.29c-0.51-0.11-0.9-0.26-1.16-0.45
			c-0.26-0.19-0.39-0.45-0.39-0.78c0-0.34,0.15-0.64,0.44-0.88c0.29-0.24,0.67-0.36,1.14-0.36c0.49,0,0.88,0.13,1.17,0.38
			c0.29,0.25,0.43,0.56,0.42,0.92l-0.01,0.02h-0.73c0-0.19-0.08-0.35-0.23-0.5c-0.16-0.15-0.36-0.22-0.62-0.22
			c-0.27,0-0.48,0.06-0.61,0.18s-0.2,0.26-0.2,0.43c0,0.17,0.06,0.3,0.18,0.39s0.36,0.18,0.71,0.26c0.53,0.11,0.93,0.27,1.19,0.47
			c0.26,0.2,0.39,0.46,0.39,0.79c0,0.38-0.15,0.68-0.46,0.91c-0.3,0.23-0.7,0.35-1.19,0.35c-0.54,0-0.96-0.14-1.27-0.41
			c-0.31-0.27-0.46-0.59-0.44-0.96l0.01-0.02h0.73c0.01,0.27,0.11,0.47,0.3,0.6c0.19,0.13,0.41,0.19,0.67,0.19
			c0.27,0,0.49-0.06,0.64-0.17C334.14,106.67,334.22,106.52,334.22,106.34z"/>
		<path d="M337,102.22v1.02h0.8v0.57H337v2.57c0,0.2,0.04,0.34,0.12,0.42s0.19,0.12,0.33,0.12c0.04,0,0.09-0.01,0.15-0.02
			c0.05-0.01,0.1-0.02,0.14-0.04l0.1,0.53c-0.06,0.05-0.14,0.09-0.25,0.12c-0.11,0.03-0.22,0.04-0.33,0.04
			c-0.31,0-0.56-0.09-0.75-0.28c-0.18-0.19-0.28-0.48-0.28-0.89v-2.57h-0.67v-0.57h0.67v-1.02H337z"/>
		<path d="M339.62,102.16h-0.77v-0.79h0.77V102.16z M339.62,107.47h-0.77v-4.23h0.77V107.47z"/>
		<path d="M342.56,106.95c0.26,0,0.48-0.08,0.67-0.24s0.29-0.35,0.29-0.58h0.69l0.01,0.02c0.01,0.36-0.15,0.69-0.49,0.97
			s-0.73,0.43-1.18,0.43c-0.62,0-1.08-0.2-1.41-0.6s-0.49-0.9-0.49-1.51v-0.16c0-0.6,0.16-1.1,0.49-1.51s0.8-0.6,1.41-0.6
			c0.49,0,0.9,0.15,1.21,0.44s0.46,0.65,0.46,1.07l-0.01,0.02h-0.7c0-0.26-0.09-0.48-0.27-0.66s-0.41-0.27-0.69-0.27
			c-0.4,0-0.69,0.15-0.87,0.44s-0.26,0.65-0.26,1.07v0.16c0,0.43,0.09,0.79,0.26,1.08S342.16,106.95,342.56,106.95z"/>
		<path d="M347.73,107.47c-0.03-0.13-0.05-0.24-0.06-0.34s-0.02-0.2-0.03-0.29c-0.14,0.2-0.33,0.37-0.56,0.51s-0.48,0.21-0.74,0.21
			c-0.44,0-0.78-0.11-1.01-0.34s-0.35-0.54-0.35-0.93c0-0.4,0.16-0.72,0.49-0.95s0.77-0.34,1.33-0.34h0.84v-0.42
			c0-0.25-0.08-0.44-0.23-0.59s-0.36-0.22-0.64-0.22c-0.25,0-0.45,0.06-0.6,0.19s-0.23,0.28-0.23,0.46h-0.73l-0.01-0.02
			c-0.02-0.31,0.13-0.59,0.44-0.84s0.7-0.38,1.19-0.38c0.48,0,0.86,0.12,1.16,0.37s0.44,0.59,0.44,1.05v2.04
			c0,0.15,0.01,0.3,0.02,0.44s0.04,0.28,0.09,0.41H347.73z M346.45,106.9c0.28,0,0.53-0.07,0.75-0.21c0.22-0.14,0.37-0.31,0.44-0.49
			v-0.69h-0.86c-0.31,0-0.56,0.08-0.74,0.23s-0.28,0.34-0.28,0.55c0,0.19,0.06,0.33,0.18,0.44S346.22,106.9,346.45,106.9z"/>
		<path d="M350.58,102.22v1.02h0.8v0.57h-0.8v2.57c0,0.2,0.04,0.34,0.12,0.42s0.19,0.12,0.33,0.12c0.04,0,0.09-0.01,0.15-0.02
			s0.1-0.02,0.14-0.04l0.1,0.53c-0.06,0.05-0.14,0.09-0.25,0.12s-0.22,0.04-0.33,0.04c-0.31,0-0.56-0.09-0.75-0.28
			s-0.28-0.48-0.28-0.89v-2.57h-0.67v-0.57h0.67v-1.02H350.58z"/>
		<path d="M353.21,102.16h-0.77v-0.79h0.77V102.16z M353.21,107.47h-0.77v-4.23h0.77V107.47z"/>
		<path d="M354.25,105.32c0-0.63,0.17-1.14,0.51-1.54s0.8-0.61,1.38-0.61c0.59,0,1.05,0.2,1.39,0.61s0.51,0.92,0.51,1.55v0.09
			c0,0.63-0.17,1.15-0.51,1.55s-0.8,0.6-1.38,0.6s-1.04-0.2-1.38-0.6s-0.51-0.92-0.51-1.54V105.32z M355.02,105.4
			c0,0.45,0.09,0.82,0.28,1.11c0.19,0.29,0.47,0.44,0.84,0.44c0.37,0,0.65-0.15,0.84-0.44c0.19-0.29,0.29-0.66,0.29-1.11v-0.09
			c0-0.44-0.1-0.81-0.29-1.1s-0.47-0.44-0.84-0.44c-0.37,0-0.64,0.15-0.83,0.44s-0.28,0.66-0.28,1.1V105.4z"/>
		<path d="M359.7,103.24l0.05,0.63c0.14-0.22,0.32-0.4,0.53-0.52s0.45-0.19,0.72-0.19c0.46,0,0.81,0.13,1.06,0.4
			s0.38,0.68,0.38,1.24v2.67h-0.77v-2.65c0-0.37-0.07-0.64-0.22-0.79s-0.37-0.23-0.67-0.23c-0.22,0-0.42,0.05-0.59,0.16
			s-0.31,0.25-0.41,0.44v3.08h-0.77v-4.23H359.7z"/>
		<path d="M366.65,102.22v1.02h0.8v0.57h-0.8v2.57c0,0.2,0.04,0.34,0.12,0.42s0.19,0.12,0.33,0.12c0.04,0,0.09-0.01,0.15-0.02
			s0.1-0.02,0.14-0.04l0.1,0.53c-0.06,0.05-0.14,0.09-0.25,0.12s-0.22,0.04-0.33,0.04c-0.31,0-0.56-0.09-0.75-0.28
			s-0.28-0.48-0.28-0.89v-2.57h-0.67v-0.57h0.67v-1.02H366.65z"/>
		<path d="M369.21,103.81c0.15-0.2,0.32-0.36,0.54-0.47s0.45-0.17,0.71-0.17c0.45,0,0.8,0.14,1.05,0.41s0.38,0.69,0.38,1.25v2.65
			h-0.77v-2.66c0-0.35-0.07-0.61-0.22-0.77s-0.37-0.25-0.67-0.25c-0.21,0-0.41,0.05-0.58,0.15s-0.32,0.24-0.43,0.41v3.12h-0.77
			v-6.09h0.77V103.81z"/>
		<path d="M375.02,103.92l-0.39-0.02c-0.2,0-0.37,0.05-0.51,0.14s-0.25,0.23-0.32,0.41v3.02h-0.77v-4.23h0.69l0.07,0.62
			c0.12-0.22,0.27-0.39,0.44-0.51s0.38-0.18,0.61-0.18c0.06,0,0.11,0,0.16,0.01s0.09,0.02,0.13,0.03L375.02,103.92z"/>
		<path d="M375.55,105.32c0-0.63,0.17-1.14,0.51-1.54s0.8-0.61,1.38-0.61c0.59,0,1.05,0.2,1.39,0.61s0.51,0.92,0.51,1.55v0.09
			c0,0.63-0.17,1.15-0.51,1.55s-0.8,0.6-1.38,0.6s-1.04-0.2-1.38-0.6s-0.51-0.92-0.51-1.54V105.32z M376.32,105.4
			c0,0.45,0.09,0.82,0.28,1.11c0.19,0.29,0.47,0.44,0.84,0.44c0.37,0,0.65-0.15,0.84-0.44c0.19-0.29,0.29-0.66,0.29-1.11v-0.09
			c0-0.44-0.1-0.81-0.29-1.1s-0.47-0.44-0.84-0.44c-0.37,0-0.64,0.15-0.83,0.44s-0.28,0.66-0.28,1.1V105.4z"/>
		<path d="M383,106.84c-0.13,0.23-0.3,0.4-0.51,0.52c-0.21,0.12-0.45,0.18-0.72,0.18c-0.46,0-0.82-0.15-1.08-0.44
			s-0.39-0.75-0.39-1.38v-2.49h0.77v2.5c0,0.45,0.07,0.76,0.2,0.93s0.34,0.25,0.62,0.25c0.27,0,0.5-0.06,0.68-0.17
			c0.18-0.11,0.31-0.27,0.4-0.47v-3.05h0.77v4.23h-0.69L383,106.84z"/>
		<path d="M384.73,105.43c0-0.68,0.15-1.23,0.45-1.64s0.71-0.63,1.23-0.63c0.27,0,0.5,0.05,0.71,0.16s0.37,0.26,0.51,0.47l0.09-0.55
			h0.61v4.25c0,0.54-0.16,0.96-0.47,1.25c-0.32,0.29-0.77,0.44-1.36,0.44c-0.2,0-0.42-0.03-0.66-0.08
			c-0.24-0.06-0.44-0.13-0.62-0.23l0.2-0.6c0.14,0.08,0.3,0.14,0.5,0.19s0.39,0.07,0.58,0.07c0.38,0,0.65-0.09,0.82-0.26
			c0.17-0.17,0.26-0.43,0.26-0.78v-0.48c-0.14,0.18-0.3,0.31-0.5,0.4c-0.19,0.09-0.41,0.13-0.66,0.13c-0.52,0-0.93-0.19-1.22-0.56
			s-0.45-0.87-0.45-1.47V105.43z M385.5,105.52c0,0.42,0.09,0.77,0.27,1.02s0.45,0.39,0.82,0.39c0.23,0,0.43-0.05,0.58-0.16
			s0.29-0.25,0.39-0.45v-1.95c-0.1-0.18-0.23-0.32-0.39-0.43c-0.16-0.11-0.35-0.16-0.57-0.16c-0.37,0-0.64,0.15-0.82,0.46
			c-0.18,0.31-0.27,0.7-0.27,1.18V105.52z"/>
		<path d="M390.26,103.81c0.15-0.2,0.33-0.36,0.54-0.47c0.21-0.11,0.45-0.17,0.71-0.17c0.45,0,0.8,0.14,1.05,0.41
			c0.25,0.27,0.38,0.69,0.38,1.25v2.65h-0.77v-2.66c0-0.35-0.07-0.61-0.22-0.77c-0.15-0.17-0.37-0.25-0.67-0.25
			c-0.21,0-0.41,0.05-0.58,0.15c-0.17,0.1-0.32,0.24-0.43,0.41v3.12h-0.77v-6.09h0.77V103.81z"/>
		<path d="M398.56,106.34c0-0.17-0.06-0.31-0.19-0.42s-0.37-0.2-0.73-0.29c-0.51-0.11-0.9-0.26-1.16-0.45
			c-0.26-0.19-0.39-0.45-0.39-0.78c0-0.34,0.15-0.64,0.44-0.88c0.29-0.24,0.67-0.36,1.14-0.36c0.49,0,0.88,0.13,1.17,0.38
			c0.29,0.25,0.43,0.56,0.42,0.92l-0.01,0.02h-0.73c0-0.19-0.08-0.35-0.23-0.5c-0.15-0.15-0.36-0.22-0.62-0.22
			c-0.27,0-0.48,0.06-0.61,0.18s-0.2,0.26-0.2,0.43c0,0.17,0.06,0.3,0.18,0.39s0.36,0.18,0.71,0.26c0.53,0.11,0.93,0.27,1.19,0.47
			c0.26,0.2,0.39,0.46,0.39,0.79c0,0.38-0.15,0.68-0.46,0.91c-0.3,0.23-0.7,0.35-1.19,0.35c-0.54,0-0.96-0.14-1.27-0.41
			c-0.31-0.27-0.46-0.59-0.44-0.96l0.01-0.02h0.73c0.01,0.27,0.12,0.47,0.3,0.6c0.19,0.13,0.41,0.19,0.67,0.19
			c0.27,0,0.49-0.06,0.64-0.17C398.48,106.67,398.56,106.52,398.56,106.34z"/>
		<path d="M401.16,102.16h-0.77v-0.79h0.77V102.16z M401.16,107.47h-0.77v-4.23h0.77V107.47z"/>
		<path d="M403.07,103.24l0.05,0.55c0.14-0.2,0.31-0.36,0.53-0.47c0.21-0.11,0.46-0.17,0.74-0.17s0.52,0.06,0.72,0.2
			c0.2,0.13,0.35,0.33,0.46,0.59c0.13-0.24,0.31-0.43,0.53-0.57s0.47-0.21,0.77-0.21c0.43,0,0.77,0.15,1.02,0.44
			s0.38,0.74,0.38,1.33v2.53h-0.77v-2.54c0-0.42-0.07-0.71-0.21-0.88c-0.14-0.17-0.36-0.26-0.64-0.26c-0.26,0-0.48,0.09-0.64,0.27
			c-0.16,0.18-0.26,0.41-0.29,0.69v0.03v2.68h-0.77v-2.54c0-0.4-0.07-0.69-0.22-0.87c-0.15-0.18-0.36-0.28-0.63-0.28
			c-0.23,0-0.43,0.05-0.58,0.14c-0.15,0.1-0.27,0.23-0.35,0.41v3.13h-0.77v-4.23H403.07z"/>
		<path d="M413.02,105.52c0,0.61-0.15,1.1-0.44,1.47c-0.29,0.37-0.69,0.56-1.21,0.56c-0.26,0-0.49-0.04-0.69-0.13
			c-0.2-0.09-0.36-0.22-0.5-0.39v2.07h-0.77v-5.85h0.59l0.12,0.55c0.14-0.2,0.31-0.36,0.52-0.46c0.21-0.11,0.45-0.16,0.72-0.16
			c0.52,0,0.93,0.21,1.22,0.62c0.29,0.42,0.44,0.96,0.44,1.65V105.52z M412.25,105.43c0-0.48-0.09-0.87-0.28-1.18
			c-0.19-0.31-0.47-0.46-0.83-0.46c-0.22,0-0.41,0.05-0.57,0.15s-0.28,0.24-0.38,0.41v2.04c0.1,0.17,0.22,0.31,0.38,0.41
			c0.16,0.1,0.35,0.15,0.57,0.15c0.36,0,0.64-0.13,0.83-0.4s0.28-0.61,0.28-1.03V105.43z"/>
		<path d="M414.83,107.47h-0.77v-6.09h0.77V107.47z"/>
		<path d="M416.89,102.16h-0.77v-0.79h0.77V102.16z M416.89,107.47h-0.77v-4.23h0.77V107.47z"/>
		<path d="M419.83,106.95c0.26,0,0.48-0.08,0.67-0.24c0.19-0.16,0.29-0.35,0.29-0.58h0.69l0.01,0.02c0.01,0.36-0.15,0.69-0.49,0.97
			c-0.34,0.28-0.73,0.43-1.18,0.43c-0.61,0-1.08-0.2-1.41-0.6c-0.33-0.4-0.49-0.9-0.49-1.51v-0.16c0-0.6,0.16-1.1,0.49-1.51
			c0.33-0.4,0.8-0.6,1.41-0.6c0.5,0,0.9,0.15,1.21,0.44c0.31,0.29,0.47,0.65,0.46,1.07l-0.01,0.02h-0.7c0-0.26-0.09-0.48-0.27-0.66
			c-0.18-0.18-0.41-0.27-0.69-0.27c-0.4,0-0.69,0.15-0.87,0.44c-0.17,0.29-0.26,0.65-0.26,1.07v0.16c0,0.43,0.09,0.79,0.26,1.08
			S419.43,106.95,419.83,106.95z"/>
		<path d="M423.23,102.16h-0.77v-0.79h0.77V102.16z M423.23,107.47h-0.77v-4.23h0.77V107.47z"/>
		<path d="M425.47,102.22v1.02h0.8v0.57h-0.8v2.57c0,0.2,0.04,0.34,0.12,0.42s0.19,0.12,0.33,0.12c0.04,0,0.09-0.01,0.15-0.02
			c0.05-0.01,0.1-0.02,0.14-0.04l0.1,0.53c-0.06,0.05-0.14,0.09-0.25,0.12c-0.11,0.03-0.22,0.04-0.33,0.04
			c-0.31,0-0.56-0.09-0.75-0.28c-0.18-0.19-0.28-0.48-0.28-0.89v-2.57h-0.67v-0.57h0.67v-1.02H425.47z"/>
		<path d="M428.55,105.9l0.14,0.53h0.02l1.04-3.19h0.86l-1.78,4.88c-0.11,0.28-0.26,0.53-0.46,0.74s-0.47,0.32-0.81,0.32
			c-0.06,0-0.14-0.01-0.24-0.02s-0.17-0.03-0.22-0.04l0.08-0.61c-0.02,0,0.03,0,0.14,0.01s0.18,0.01,0.21,0.01
			c0.16,0,0.3-0.07,0.4-0.22s0.19-0.31,0.26-0.48l0.18-0.44l-1.57-4.14h0.86L428.55,105.9z"/>
		<path d="M431.52,107.47h-0.77v-0.8h0.77V107.47z"/>
		<path d="M331.75,116.39h-1.83v5.08h-0.77v-5.08h-1.82v-0.61h4.42V116.39z"/>
		<path d="M333.25,117.81c0.15-0.2,0.32-0.36,0.54-0.47s0.45-0.17,0.71-0.17c0.45,0,0.8,0.14,1.05,0.41s0.38,0.69,0.38,1.25v2.65
			h-0.77v-2.66c0-0.35-0.07-0.61-0.22-0.77s-0.37-0.25-0.67-0.25c-0.21,0-0.41,0.05-0.58,0.15s-0.32,0.24-0.43,0.41v3.12h-0.77
			v-6.09h0.77V117.81z"/>
		<path d="M338.82,121.55c-0.59,0-1.06-0.2-1.4-0.59s-0.52-0.9-0.52-1.53v-0.17c0-0.6,0.18-1.1,0.54-1.5s0.78-0.6,1.27-0.6
			c0.57,0,1,0.17,1.29,0.52s0.44,0.8,0.44,1.38v0.48h-2.74l-0.01,0.02c0.01,0.41,0.11,0.74,0.31,1c0.2,0.26,0.48,0.39,0.83,0.39
			c0.26,0,0.49-0.04,0.69-0.11s0.37-0.18,0.51-0.31l0.3,0.5c-0.15,0.15-0.35,0.27-0.6,0.37S339.17,121.55,338.82,121.55z
			 M338.7,117.77c-0.26,0-0.48,0.11-0.66,0.33s-0.29,0.49-0.34,0.82l0.01,0.02h1.95v-0.1c0-0.3-0.08-0.55-0.24-0.76
			C339.26,117.87,339.02,117.77,338.7,117.77z"/>
		<path d="M344.05,117.24l0.05,0.55c0.14-0.2,0.31-0.36,0.53-0.47s0.46-0.17,0.74-0.17s0.52,0.06,0.72,0.2s0.35,0.33,0.46,0.59
			c0.13-0.24,0.31-0.43,0.53-0.57s0.47-0.21,0.77-0.21c0.43,0,0.77,0.15,1.02,0.44s0.38,0.74,0.38,1.33v2.53h-0.77v-2.54
			c0-0.42-0.07-0.71-0.21-0.88s-0.36-0.26-0.64-0.26c-0.26,0-0.48,0.09-0.64,0.27s-0.26,0.41-0.29,0.69v0.03v2.68h-0.77v-2.54
			c0-0.4-0.07-0.69-0.22-0.87s-0.36-0.28-0.63-0.28c-0.23,0-0.43,0.05-0.58,0.14s-0.27,0.23-0.35,0.41v3.13h-0.77v-4.23H344.05z"/>
		<path d="M352.99,121.47c-0.03-0.13-0.05-0.24-0.06-0.34s-0.02-0.2-0.03-0.29c-0.14,0.2-0.33,0.37-0.56,0.51s-0.48,0.21-0.74,0.21
			c-0.44,0-0.78-0.11-1.01-0.34s-0.35-0.54-0.35-0.93c0-0.4,0.16-0.72,0.49-0.95s0.77-0.34,1.33-0.34h0.84v-0.42
			c0-0.25-0.08-0.44-0.23-0.59s-0.37-0.22-0.64-0.22c-0.25,0-0.45,0.06-0.6,0.19s-0.23,0.28-0.23,0.46h-0.73l-0.01-0.02
			c-0.02-0.31,0.13-0.59,0.44-0.84s0.7-0.38,1.19-0.38c0.48,0,0.87,0.12,1.16,0.37s0.44,0.59,0.44,1.05v2.04
			c0,0.15,0.01,0.3,0.02,0.44s0.04,0.28,0.09,0.41H352.99z M351.72,120.9c0.28,0,0.53-0.07,0.75-0.21c0.22-0.14,0.37-0.31,0.44-0.49
			v-0.69h-0.86c-0.31,0-0.56,0.08-0.74,0.23s-0.28,0.34-0.28,0.55c0,0.19,0.06,0.33,0.18,0.44S351.49,120.9,351.72,120.9z"/>
		<path d="M356.83,117.92l-0.39-0.02c-0.2,0-0.37,0.05-0.51,0.14s-0.25,0.23-0.32,0.41v3.02h-0.77v-4.23h0.69l0.07,0.62
			c0.12-0.22,0.27-0.39,0.44-0.51s0.38-0.18,0.61-0.18c0.06,0,0.11,0,0.16,0.01s0.09,0.02,0.13,0.03L356.83,117.92z"/>
		<path d="M359.62,117.92l-0.39-0.02c-0.2,0-0.38,0.05-0.51,0.14c-0.14,0.1-0.25,0.23-0.32,0.41v3.02h-0.77v-4.23h0.69l0.07,0.62
			c0.12-0.22,0.27-0.39,0.44-0.51s0.38-0.18,0.61-0.18c0.06,0,0.11,0,0.16,0.01c0.05,0.01,0.09,0.02,0.13,0.03L359.62,117.92z"/>
		<path d="M361.23,116.16h-0.77v-0.79h0.77V116.16z M361.23,121.47h-0.77v-4.23h0.77V121.47z"/>
		<path d="M365.05,121.47c-0.03-0.13-0.05-0.24-0.06-0.34c-0.01-0.1-0.02-0.2-0.03-0.29c-0.14,0.2-0.33,0.37-0.56,0.51
			s-0.48,0.21-0.74,0.21c-0.44,0-0.78-0.11-1.01-0.34s-0.35-0.54-0.35-0.93c0-0.4,0.16-0.72,0.49-0.95
			c0.33-0.23,0.77-0.34,1.33-0.34h0.84v-0.42c0-0.25-0.08-0.44-0.23-0.59c-0.15-0.14-0.37-0.22-0.64-0.22
			c-0.25,0-0.45,0.06-0.6,0.19c-0.16,0.13-0.23,0.28-0.23,0.46h-0.73l-0.01-0.02c-0.02-0.31,0.13-0.59,0.44-0.84
			c0.31-0.26,0.7-0.38,1.19-0.38c0.48,0,0.86,0.12,1.16,0.37c0.29,0.24,0.44,0.59,0.44,1.05v2.04c0,0.15,0.01,0.3,0.02,0.44
			s0.04,0.28,0.09,0.41H365.05z M363.78,120.9c0.28,0,0.53-0.07,0.75-0.21c0.22-0.14,0.37-0.31,0.44-0.49v-0.69h-0.86
			c-0.31,0-0.56,0.08-0.74,0.23c-0.19,0.16-0.28,0.34-0.28,0.55c0,0.19,0.06,0.33,0.18,0.44S363.55,120.9,363.78,120.9z"/>
		<path d="M366.72,119.43c0-0.68,0.15-1.23,0.45-1.64s0.71-0.63,1.23-0.63c0.27,0,0.5,0.05,0.71,0.16s0.37,0.26,0.51,0.47l0.09-0.55
			h0.61v4.25c0,0.54-0.16,0.96-0.47,1.25c-0.31,0.29-0.77,0.44-1.36,0.44c-0.2,0-0.42-0.03-0.66-0.08
			c-0.24-0.06-0.44-0.13-0.62-0.23l0.2-0.6c0.14,0.08,0.3,0.14,0.5,0.19s0.39,0.07,0.58,0.07c0.38,0,0.65-0.09,0.82-0.26
			c0.17-0.17,0.26-0.43,0.26-0.78v-0.48c-0.14,0.18-0.3,0.31-0.5,0.4c-0.19,0.09-0.41,0.13-0.66,0.13c-0.52,0-0.93-0.19-1.22-0.56
			s-0.45-0.87-0.45-1.47V119.43z M367.49,119.52c0,0.42,0.09,0.77,0.27,1.02s0.45,0.39,0.82,0.39c0.23,0,0.43-0.05,0.58-0.16
			s0.29-0.25,0.39-0.45v-1.95c-0.1-0.18-0.23-0.32-0.39-0.43c-0.16-0.11-0.35-0.16-0.57-0.16c-0.37,0-0.64,0.15-0.82,0.46
			c-0.18,0.31-0.27,0.7-0.27,1.18V119.52z"/>
		<path d="M373.23,121.55c-0.59,0-1.06-0.2-1.4-0.59s-0.52-0.9-0.52-1.53v-0.17c0-0.6,0.18-1.1,0.54-1.5c0.36-0.4,0.78-0.6,1.27-0.6
			c0.57,0,1,0.17,1.29,0.52c0.29,0.34,0.44,0.8,0.44,1.38v0.48h-2.74l-0.01,0.02c0.01,0.41,0.11,0.74,0.31,1
			c0.2,0.26,0.47,0.39,0.83,0.39c0.26,0,0.49-0.04,0.69-0.11c0.2-0.07,0.37-0.18,0.51-0.31l0.3,0.5c-0.15,0.15-0.35,0.27-0.6,0.37
			C373.88,121.5,373.59,121.55,373.23,121.55z M373.12,117.77c-0.26,0-0.48,0.11-0.66,0.33c-0.18,0.22-0.29,0.49-0.34,0.82
			l0.01,0.02h1.95v-0.1c0-0.3-0.08-0.55-0.24-0.76C373.67,117.87,373.43,117.77,373.12,117.77z"/>
		<path d="M377.6,119.32c0-0.63,0.17-1.14,0.51-1.54c0.34-0.4,0.8-0.61,1.38-0.61c0.59,0,1.05,0.2,1.39,0.61s0.51,0.92,0.51,1.55
			v0.09c0,0.63-0.17,1.15-0.51,1.55c-0.34,0.4-0.8,0.6-1.38,0.6c-0.58,0-1.04-0.2-1.38-0.6s-0.51-0.92-0.51-1.54V119.32z
			 M378.37,119.4c0,0.45,0.09,0.82,0.28,1.11c0.19,0.29,0.47,0.44,0.84,0.44c0.37,0,0.65-0.15,0.84-0.44
			c0.19-0.29,0.29-0.66,0.29-1.11v-0.09c0-0.44-0.1-0.81-0.29-1.1s-0.47-0.44-0.84-0.44c-0.37,0-0.65,0.15-0.83,0.44
			c-0.19,0.29-0.28,0.66-0.28,1.1V119.4z"/>
		<path d="M382.69,121.47v-3.66h-0.66v-0.57h0.66v-0.54c0-0.45,0.12-0.8,0.35-1.04c0.24-0.25,0.56-0.37,0.99-0.37
			c0.09,0,0.18,0.01,0.27,0.02s0.19,0.03,0.3,0.06l-0.09,0.59c-0.05-0.01-0.1-0.02-0.17-0.03s-0.14-0.01-0.21-0.01
			c-0.22,0-0.39,0.07-0.5,0.2s-0.16,0.33-0.16,0.58v0.54h0.88v0.57h-0.88v3.66H382.69z"/>
		<path d="M389.79,121.47c-0.03-0.13-0.05-0.24-0.06-0.34c-0.01-0.1-0.02-0.2-0.03-0.29c-0.14,0.2-0.33,0.37-0.56,0.51
			s-0.48,0.21-0.74,0.21c-0.44,0-0.78-0.11-1.01-0.34s-0.35-0.54-0.35-0.93c0-0.4,0.16-0.72,0.49-0.95
			c0.33-0.23,0.77-0.34,1.33-0.34h0.84v-0.42c0-0.25-0.08-0.44-0.23-0.59c-0.15-0.14-0.36-0.22-0.64-0.22
			c-0.25,0-0.45,0.06-0.6,0.19c-0.15,0.13-0.23,0.28-0.23,0.46h-0.73l-0.01-0.02c-0.02-0.31,0.13-0.59,0.44-0.84
			c0.31-0.26,0.7-0.38,1.19-0.38c0.48,0,0.87,0.12,1.16,0.37c0.29,0.24,0.44,0.59,0.44,1.05v2.04c0,0.15,0.01,0.3,0.02,0.44
			s0.04,0.28,0.09,0.41H389.79z M388.52,120.9c0.28,0,0.53-0.07,0.75-0.21c0.22-0.14,0.37-0.31,0.44-0.49v-0.69h-0.86
			c-0.31,0-0.56,0.08-0.74,0.23c-0.19,0.16-0.28,0.34-0.28,0.55c0,0.19,0.06,0.33,0.18,0.44S388.29,120.9,388.52,120.9z"/>
		<path d="M393.63,117.92l-0.39-0.02c-0.2,0-0.38,0.05-0.51,0.14c-0.14,0.1-0.25,0.23-0.32,0.41v3.02h-0.77v-4.23h0.69l0.07,0.62
			c0.12-0.22,0.27-0.39,0.44-0.51s0.38-0.18,0.61-0.18c0.06,0,0.11,0,0.16,0.01c0.05,0.01,0.09,0.02,0.13,0.03L393.63,117.92z"/>
		<path d="M395.5,116.22v1.02h0.8v0.57h-0.8v2.57c0,0.2,0.04,0.34,0.12,0.42s0.19,0.12,0.33,0.12c0.04,0,0.09-0.01,0.15-0.02
			c0.05-0.01,0.1-0.02,0.14-0.04l0.1,0.53c-0.06,0.05-0.14,0.09-0.25,0.12c-0.11,0.03-0.22,0.04-0.33,0.04
			c-0.31,0-0.56-0.09-0.75-0.28c-0.18-0.19-0.28-0.48-0.28-0.89v-2.57h-0.67v-0.57h0.67v-1.02H395.5z"/>
		<path d="M399.01,119.94c0-0.32,0.09-0.6,0.28-0.83s0.46-0.48,0.82-0.72c-0.2-0.26-0.35-0.49-0.45-0.69s-0.15-0.41-0.15-0.62
			c0-0.44,0.13-0.78,0.38-1.02s0.6-0.36,1.05-0.36c0.41,0,0.75,0.12,1,0.36s0.39,0.52,0.39,0.86c0,0.26-0.07,0.48-0.21,0.66
			s-0.34,0.38-0.61,0.57l-0.43,0.31l1.33,1.6c0.11-0.17,0.19-0.36,0.25-0.56s0.09-0.42,0.09-0.65h0.69c0,0.34-0.05,0.66-0.15,0.95
			s-0.25,0.55-0.44,0.79l0.72,0.87l-0.01,0.02h-0.89l-0.33-0.4c-0.21,0.16-0.44,0.28-0.69,0.36s-0.51,0.12-0.79,0.12
			c-0.56,0-1.02-0.15-1.35-0.45S399.01,120.41,399.01,119.94z M400.86,120.95c0.19,0,0.37-0.03,0.55-0.1
			c0.18-0.06,0.35-0.16,0.52-0.27l-1.41-1.7l-0.16,0.11c-0.24,0.18-0.39,0.35-0.47,0.51s-0.12,0.31-0.12,0.44
			c0,0.29,0.09,0.54,0.28,0.73C400.24,120.85,400.51,120.95,400.86,120.95z M400.27,117.07c0,0.14,0.04,0.28,0.11,0.43
			s0.18,0.31,0.32,0.49l0.54-0.37c0.15-0.1,0.25-0.21,0.3-0.32s0.08-0.24,0.08-0.38c0-0.16-0.06-0.3-0.19-0.42s-0.29-0.18-0.49-0.18
			c-0.21,0-0.37,0.07-0.49,0.22S400.27,116.85,400.27,117.07z"/>
		<path d="M406.19,119.43c0-0.68,0.14-1.23,0.44-1.64s0.7-0.63,1.22-0.63c0.25,0,0.47,0.05,0.66,0.14s0.36,0.22,0.49,0.4v-2.32h0.77
			v6.09h-0.63l-0.09-0.52c-0.14,0.2-0.31,0.35-0.51,0.45s-0.43,0.15-0.7,0.15c-0.52,0-0.92-0.19-1.21-0.56s-0.44-0.87-0.44-1.47
			V119.43z M406.96,119.52c0,0.43,0.09,0.77,0.26,1.03s0.45,0.38,0.81,0.38c0.23,0,0.42-0.05,0.58-0.16s0.28-0.25,0.38-0.44v-1.97
			c-0.1-0.17-0.23-0.31-0.38-0.42s-0.35-0.15-0.57-0.15c-0.37,0-0.64,0.15-0.82,0.46s-0.26,0.7-0.26,1.19V119.52z"/>
		<path d="M412.71,121.55c-0.59,0-1.06-0.2-1.4-0.59s-0.52-0.9-0.52-1.53v-0.17c0-0.6,0.18-1.1,0.54-1.5s0.78-0.6,1.27-0.6
			c0.57,0,1,0.17,1.29,0.52s0.44,0.8,0.44,1.38v0.48h-2.74l-0.01,0.02c0.01,0.41,0.11,0.74,0.31,1c0.2,0.26,0.48,0.39,0.83,0.39
			c0.26,0,0.49-0.04,0.69-0.11s0.37-0.18,0.51-0.31l0.3,0.5c-0.15,0.15-0.35,0.27-0.6,0.37S413.06,121.55,412.71,121.55z
			 M412.59,117.77c-0.26,0-0.48,0.11-0.66,0.33s-0.29,0.49-0.34,0.82l0.01,0.02h1.95v-0.1c0-0.3-0.08-0.55-0.24-0.76
			C413.15,117.87,412.91,117.77,412.59,117.77z"/>
		<path d="M417.68,120.34c0-0.17-0.06-0.31-0.19-0.42s-0.37-0.2-0.73-0.29c-0.51-0.11-0.9-0.26-1.16-0.45
			c-0.26-0.19-0.39-0.45-0.39-0.78c0-0.34,0.15-0.64,0.44-0.88s0.67-0.36,1.14-0.36c0.49,0,0.88,0.13,1.17,0.38s0.43,0.56,0.42,0.92
			l-0.01,0.02h-0.73c0-0.19-0.08-0.35-0.23-0.5s-0.36-0.22-0.62-0.22c-0.27,0-0.48,0.06-0.61,0.18s-0.2,0.26-0.2,0.43
			c0,0.17,0.06,0.3,0.18,0.39s0.36,0.18,0.71,0.26c0.53,0.11,0.93,0.27,1.19,0.47s0.39,0.46,0.39,0.79c0,0.38-0.15,0.68-0.46,0.91
			s-0.7,0.35-1.19,0.35c-0.54,0-0.96-0.14-1.27-0.41s-0.46-0.59-0.44-0.96l0.01-0.02h0.73c0.01,0.27,0.12,0.47,0.3,0.6
			s0.41,0.19,0.67,0.19c0.27,0,0.49-0.06,0.64-0.17S417.68,120.52,417.68,120.34z"/>
		<path d="M420.28,116.16h-0.77v-0.79h0.77V116.16z M420.28,121.47h-0.77v-4.23h0.77V121.47z"/>
		<path d="M421.34,119.43c0-0.68,0.15-1.23,0.45-1.64s0.71-0.63,1.23-0.63c0.27,0,0.5,0.05,0.71,0.16s0.37,0.26,0.51,0.47l0.09-0.55
			h0.61v4.25c0,0.54-0.16,0.96-0.47,1.25s-0.77,0.44-1.36,0.44c-0.2,0-0.42-0.03-0.66-0.08s-0.44-0.13-0.62-0.23l0.2-0.6
			c0.14,0.08,0.3,0.14,0.5,0.19s0.39,0.07,0.58,0.07c0.38,0,0.65-0.09,0.82-0.26s0.26-0.43,0.26-0.78v-0.48
			c-0.14,0.18-0.3,0.31-0.5,0.4s-0.41,0.13-0.66,0.13c-0.52,0-0.93-0.19-1.22-0.56s-0.45-0.87-0.45-1.47V119.43z M422.11,119.52
			c0,0.42,0.09,0.77,0.27,1.02s0.45,0.39,0.82,0.39c0.23,0,0.43-0.05,0.58-0.16s0.29-0.25,0.39-0.45v-1.95
			c-0.1-0.18-0.23-0.32-0.39-0.43s-0.35-0.16-0.57-0.16c-0.37,0-0.64,0.15-0.82,0.46s-0.27,0.7-0.27,1.18V119.52z"/>
		<path d="M426.78,117.24l0.05,0.63c0.14-0.22,0.32-0.4,0.53-0.52s0.45-0.19,0.72-0.19c0.46,0,0.81,0.13,1.06,0.4
			s0.38,0.68,0.38,1.24v2.67h-0.77v-2.65c0-0.37-0.07-0.64-0.22-0.79s-0.37-0.23-0.67-0.23c-0.22,0-0.42,0.05-0.59,0.16
			s-0.31,0.25-0.41,0.44v3.08h-0.77v-4.23H426.78z"/>
		<path d="M431.52,121.47h-0.77v-0.8h0.77V121.47z"/>
		<path d="M352.48,130.39h-1.83v5.08h-0.77v-5.08h-1.82v-0.61h4.42V130.39z"/>
		<path d="M353.98,131.81c0.15-0.2,0.32-0.36,0.54-0.47s0.45-0.17,0.71-0.17c0.45,0,0.8,0.14,1.05,0.41s0.38,0.69,0.38,1.25v2.65
			h-0.77v-2.66c0-0.35-0.07-0.61-0.22-0.77s-0.37-0.25-0.67-0.25c-0.21,0-0.41,0.05-0.58,0.15s-0.32,0.24-0.43,0.41v3.12h-0.77
			v-6.09h0.77V131.81z"/>
		<path d="M358.63,130.16h-0.77v-0.79h0.77V130.16z M358.63,135.47h-0.77v-4.23h0.77V135.47z"/>
		<path d="M362.31,134.34c0-0.17-0.06-0.31-0.19-0.42s-0.37-0.2-0.73-0.29c-0.51-0.11-0.9-0.26-1.16-0.45
			c-0.26-0.19-0.39-0.45-0.39-0.78c0-0.34,0.15-0.64,0.44-0.88s0.67-0.36,1.14-0.36c0.49,0,0.88,0.13,1.17,0.38s0.43,0.56,0.42,0.92
			l-0.01,0.02h-0.73c0-0.19-0.08-0.35-0.23-0.5s-0.36-0.22-0.62-0.22c-0.27,0-0.48,0.06-0.61,0.18s-0.2,0.26-0.2,0.43
			c0,0.17,0.06,0.3,0.18,0.39s0.36,0.18,0.71,0.26c0.53,0.11,0.93,0.27,1.19,0.47s0.39,0.46,0.39,0.79c0,0.38-0.15,0.68-0.46,0.91
			s-0.7,0.35-1.19,0.35c-0.54,0-0.96-0.14-1.27-0.41s-0.46-0.59-0.44-0.96l0.01-0.02h0.73c0.01,0.27,0.12,0.47,0.3,0.6
			s0.41,0.19,0.67,0.19c0.27,0,0.49-0.06,0.64-0.17S362.31,134.52,362.31,134.34z"/>
		<path d="M366.94,130.16h-0.77v-0.79h0.77V130.16z M366.94,135.47h-0.77v-4.23h0.77V135.47z"/>
		<path d="M370.62,134.34c0-0.17-0.06-0.31-0.19-0.42s-0.37-0.2-0.73-0.29c-0.51-0.11-0.9-0.26-1.16-0.45
			c-0.26-0.19-0.39-0.45-0.39-0.78c0-0.34,0.15-0.64,0.44-0.88s0.67-0.36,1.14-0.36c0.49,0,0.88,0.13,1.17,0.38s0.43,0.56,0.42,0.92
			l-0.01,0.02h-0.73c0-0.19-0.08-0.35-0.23-0.5s-0.36-0.22-0.62-0.22c-0.27,0-0.48,0.06-0.61,0.18s-0.2,0.26-0.2,0.43
			c0,0.17,0.06,0.3,0.18,0.39s0.36,0.18,0.71,0.26c0.53,0.11,0.93,0.27,1.19,0.47s0.39,0.46,0.39,0.79c0,0.38-0.15,0.68-0.46,0.91
			s-0.7,0.35-1.19,0.35c-0.54,0-0.96-0.14-1.27-0.41s-0.46-0.59-0.44-0.96l0.01-0.02h0.73c0.01,0.27,0.11,0.47,0.3,0.6
			s0.41,0.19,0.67,0.19c0.27,0,0.49-0.06,0.64-0.17S370.62,134.52,370.62,134.34z"/>
		<path d="M375.49,133.93l0.09,0.51h0.02l0.11-0.51l0.84-2.69h0.62l0.85,2.69l0.12,0.57h0.02l0.11-0.57l0.66-2.69h0.77l-1.23,4.23
			h-0.62l-0.82-2.57l-0.18-0.72l-0.02,0l-0.17,0.71l-0.8,2.57h-0.62l-1.23-4.23h0.77L375.49,133.93z"/>
		<path d="M381.28,131.81c0.15-0.2,0.32-0.36,0.54-0.47c0.21-0.11,0.45-0.17,0.71-0.17c0.45,0,0.8,0.14,1.05,0.41
			c0.25,0.27,0.38,0.69,0.38,1.25v2.65h-0.77v-2.66c0-0.35-0.08-0.61-0.22-0.77c-0.15-0.17-0.37-0.25-0.67-0.25
			c-0.21,0-0.41,0.05-0.58,0.15c-0.17,0.1-0.32,0.24-0.43,0.41v3.12h-0.77v-6.09h0.77V131.81z"/>
		<path d="M387.69,135.47c-0.03-0.13-0.05-0.24-0.06-0.34c-0.01-0.1-0.02-0.2-0.03-0.29c-0.14,0.2-0.33,0.37-0.56,0.51
			s-0.48,0.21-0.74,0.21c-0.44,0-0.78-0.11-1.01-0.34s-0.35-0.54-0.35-0.93c0-0.4,0.16-0.72,0.49-0.95
			c0.33-0.23,0.77-0.34,1.33-0.34h0.84v-0.42c0-0.25-0.08-0.44-0.23-0.59c-0.15-0.14-0.36-0.22-0.64-0.22
			c-0.25,0-0.45,0.06-0.6,0.19c-0.15,0.13-0.23,0.28-0.23,0.46h-0.73l-0.01-0.02c-0.02-0.31,0.13-0.59,0.44-0.84
			c0.31-0.26,0.7-0.38,1.19-0.38c0.48,0,0.87,0.12,1.16,0.37c0.29,0.24,0.44,0.59,0.44,1.05v2.04c0,0.15,0.01,0.3,0.02,0.44
			s0.04,0.28,0.09,0.41H387.69z M386.41,134.9c0.28,0,0.53-0.07,0.75-0.21c0.22-0.14,0.37-0.31,0.44-0.49v-0.69h-0.86
			c-0.31,0-0.56,0.08-0.74,0.23c-0.19,0.16-0.28,0.34-0.28,0.55c0,0.19,0.06,0.33,0.18,0.44S386.18,134.9,386.41,134.9z"/>
		<path d="M390.55,130.22v1.02h0.8v0.57h-0.8v2.57c0,0.2,0.04,0.34,0.12,0.42s0.19,0.12,0.33,0.12c0.04,0,0.09-0.01,0.15-0.02
			c0.05-0.01,0.1-0.02,0.14-0.04l0.1,0.53c-0.06,0.05-0.14,0.09-0.25,0.12c-0.11,0.03-0.22,0.04-0.33,0.04
			c-0.31,0-0.56-0.09-0.75-0.28c-0.19-0.19-0.28-0.48-0.28-0.89v-2.57h-0.67v-0.57h0.67v-1.02H390.55z"/>
		<path d="M395.45,133.93l0.09,0.51h0.02l0.11-0.51l0.84-2.69h0.62l0.85,2.69l0.12,0.57h0.02l0.11-0.57l0.66-2.69h0.77l-1.23,4.23
			h-0.62L397,132.9l-0.18-0.72l-0.02,0l-0.17,0.71l-0.8,2.57h-0.62l-1.23-4.23h0.77L395.45,133.93z"/>
		<path d="M402.21,135.55c-0.59,0-1.06-0.2-1.4-0.59s-0.52-0.9-0.52-1.53v-0.17c0-0.6,0.18-1.1,0.54-1.5c0.36-0.4,0.78-0.6,1.27-0.6
			c0.57,0,1,0.17,1.29,0.52c0.29,0.34,0.44,0.8,0.44,1.38v0.48h-2.74l-0.01,0.02c0.01,0.41,0.11,0.74,0.31,1
			c0.2,0.26,0.48,0.39,0.83,0.39c0.26,0,0.49-0.04,0.69-0.11c0.2-0.07,0.37-0.18,0.51-0.31l0.3,0.5c-0.15,0.15-0.35,0.27-0.6,0.37
			C402.86,135.5,402.56,135.55,402.21,135.55z M402.1,131.77c-0.26,0-0.48,0.11-0.66,0.33c-0.18,0.22-0.29,0.49-0.34,0.82l0.01,0.02
			h1.95v-0.1c0-0.3-0.08-0.55-0.24-0.76C402.65,131.87,402.41,131.77,402.1,131.77z"/>
		<path d="M407.59,135.47h-0.77v-6.09h0.77V135.47z"/>
		<path d="M409.65,130.16h-0.77v-0.79h0.77V130.16z M409.65,135.47h-0.77v-4.23h0.77V135.47z"/>
		<path d="M412.28,134.22l0.07,0.3h0.02l0.07-0.3l0.97-2.98h0.79l-1.55,4.23h-0.58l-1.57-4.23h0.79L412.28,134.22z"/>
		<path d="M416.64,135.55c-0.59,0-1.06-0.2-1.4-0.59s-0.52-0.9-0.52-1.53v-0.17c0-0.6,0.18-1.1,0.54-1.5s0.78-0.6,1.27-0.6
			c0.57,0,1,0.17,1.29,0.52s0.44,0.8,0.44,1.38v0.48h-2.74l-0.01,0.02c0.01,0.41,0.11,0.74,0.31,1c0.2,0.26,0.48,0.39,0.83,0.39
			c0.26,0,0.49-0.04,0.69-0.11s0.37-0.18,0.51-0.31l0.3,0.5c-0.15,0.15-0.35,0.27-0.6,0.37S416.99,135.55,416.64,135.55z
			 M416.52,131.77c-0.26,0-0.48,0.11-0.66,0.33s-0.29,0.49-0.34,0.82l0.01,0.02h1.95v-0.1c0-0.3-0.08-0.55-0.24-0.76
			C417.08,131.87,416.84,131.77,416.52,131.77z"/>
		<path d="M421.5,135.47v-3.66h-0.66v-0.57h0.66v-0.54c0-0.45,0.12-0.8,0.35-1.04s0.56-0.37,0.99-0.37c0.09,0,0.18,0.01,0.27,0.02
			s0.19,0.03,0.3,0.06l-0.09,0.59c-0.05-0.01-0.1-0.02-0.17-0.03s-0.14-0.01-0.21-0.01c-0.22,0-0.39,0.07-0.5,0.2
			s-0.16,0.33-0.16,0.58v0.54h0.88v0.57h-0.88v3.66H421.5z"/>
		<path d="M423.8,133.32c0-0.63,0.17-1.14,0.51-1.54s0.8-0.61,1.38-0.61c0.59,0,1.05,0.2,1.39,0.61s0.51,0.92,0.51,1.55v0.09
			c0,0.63-0.17,1.15-0.51,1.55s-0.8,0.6-1.38,0.6s-1.04-0.2-1.38-0.6s-0.51-0.92-0.51-1.54V133.32z M424.57,133.4
			c0,0.45,0.09,0.82,0.28,1.11c0.19,0.29,0.47,0.44,0.84,0.44c0.37,0,0.65-0.15,0.84-0.44c0.19-0.29,0.29-0.66,0.29-1.11v-0.09
			c0-0.44-0.1-0.81-0.29-1.1s-0.47-0.44-0.84-0.44c-0.37,0-0.64,0.15-0.83,0.44s-0.28,0.66-0.28,1.1V133.4z"/>
		<path d="M430.57,131.92l-0.39-0.02c-0.2,0-0.37,0.05-0.51,0.14s-0.25,0.23-0.32,0.41v3.02h-0.77v-4.23h0.69l0.07,0.62
			c0.12-0.22,0.27-0.39,0.44-0.51s0.38-0.18,0.61-0.18c0.06,0,0.11,0,0.16,0.01s0.09,0.02,0.13,0.03L430.57,131.92z"/>
		<path d="M431.52,135.47h-0.77v-0.8h0.77V135.47z"/>
	</g>
</g>
</svg>
