<?xml version="1.0" encoding="utf-8"?>
<!-- Generator: Adobe Illustrator 24.2.1, SVG Export Plug-In . SVG Version: 6.00 Build 0)  -->
<svg version="1.1" id="Layer_1" xmlns="http://www.w3.org/2000/svg" xmlns:xlink="http://www.w3.org/1999/xlink" x="0px" y="0px"
	 viewBox="0 0 503.26 389.28" style="enable-background:new 0 0 503.26 389.28;" xml:space="preserve">
<style type="text/css">
	.st0{fill:#1B1C1C;}
	.st1{fill:#E90129;}
	.st2{fill:#46454B;}
</style>
<g>
	<g>
		<path class="st0" d="M36.6,86.93c5.06-7.13,11.23-12.66,18.5-16.6c7.27-3.94,15.31-5.91,24.12-5.91
			c16.13,0,28.72,5.09,37.77,15.26c9.05,10.18,13.57,25.86,13.57,47.05v92.7H96.38v-92.98c0-12-2.39-20.68-7.17-26.02
			c-4.78-5.35-11.96-8.02-21.52-8.02c-6.66,0-12.64,1.39-17.93,4.15c-5.3,2.77-9.68,6.59-13.15,11.46v111.41H2.42V0H36.6V86.93z"/>
		<path class="st0" d="M240.3,219.44c-1.22-3.84-2.23-7.59-3.02-11.25c-0.8-3.66-1.34-7.31-1.62-10.97
			c-4.69,7.13-10.86,13.11-18.5,17.94c-7.64,4.83-16.2,7.24-25.67,7.24c-15.85,0-28.02-4.08-36.5-12.24
			c-8.49-8.16-12.73-19.36-12.73-33.62c0-14.72,5.81-26.19,17.44-34.39c11.63-8.2,27.99-12.31,49.09-12.31h26.59v-13.36
			c0-7.97-2.35-14.21-7.03-18.71c-4.69-4.5-11.39-6.75-20.12-6.75c-7.78,0-13.97,1.88-18.57,5.63c-4.6,3.75-6.89,8.58-6.89,14.49
			h-32.92l-0.14-0.84c-0.66-12,4.71-22.65,16.11-31.93c11.39-9.28,26.23-13.93,44.52-13.93c17.72,0,32.02,4.5,42.9,13.5
			c10.88,9,16.32,21.94,16.32,38.82v67.66c0,6.28,0.42,12.31,1.27,18.08c0.84,5.77,2.2,11.42,4.08,16.95H240.3z M198.38,194.96
			c8.63,0,16.39-2.16,23.28-6.47c6.89-4.31,11.46-9.23,13.71-14.77v-22.51h-27.15c-9.94,0-17.72,2.46-23.35,7.38
			c-5.63,4.92-8.44,10.71-8.44,17.37c0,5.82,1.9,10.43,5.7,13.85C185.93,193.25,191.35,194.96,198.38,194.96z"/>
		<path class="st0" d="M319.09,67.24l1.97,21.94c4.97-7.78,11.23-13.85,18.78-18.22c7.55-4.36,16.06-6.54,25.53-6.54
			c15.85,0,28.2,4.81,37.07,14.42s13.29,24.59,13.29,44.94v95.65h-34.18v-95.37c0-11.44-2.37-19.57-7.1-24.4
			c-4.74-4.83-11.93-7.25-21.59-7.25c-6.66,0-12.61,1.48-17.86,4.43c-5.25,2.95-9.57,7.01-12.94,12.17v110.42h-34.18V67.24H319.09z"
			/>
	</g>
	<circle class="st1" cx="468.28" cy="228.52" r="34.98"/>
	<g>
		<path class="st2" d="M78.11,294.9c-11.82-2.25-19.67-4.78-23.56-7.59c-3.89-2.81-5.84-6.24-5.84-10.27
			c0-4.22,1.69-7.69,5.06-10.41c3.38-2.72,7.55-4.08,12.52-4.08c6.75,0,11.65,1.55,14.7,4.64c3.05,3.09,4.57,7.64,4.57,13.64h46.14
			l0.28-0.84c0.56-14.35-5.16-26.05-17.16-35.1c-12.01-9.05-28.13-13.57-48.39-13.57c-19.22,0-34.46,4.67-45.72,14
			c-11.25,9.33-16.88,20.7-16.88,34.11c0,9.94,2.81,18.2,8.36,24.85h95.87C100.08,300.39,90.11,297.26,78.11,294.9z"/>
		<path class="st2" d="M126.65,319.35H35.29c6.42,2.49,13.78,4.57,22.14,6.21c9.98,2.08,17.2,4.4,21.69,6.96h52.81
			C130.97,327.59,129.18,323.22,126.65,319.35z"/>
		<path class="st2" d="M17.27,373.53c12.05,10.5,28.44,15.76,49.16,15.76c19.98,0,36.03-4.43,48.18-13.29
			c4.7-3.43,8.47-7.22,11.36-11.37H8.8C11.16,367.68,13.97,370.65,17.27,373.53z"/>
		<path class="st2" d="M119.39,311.28c-2.23-1.81-4.76-3.51-7.58-5.09H13.89c1.07,1.11,2.21,2.18,3.45,3.19
			c3,2.44,6.54,4.65,10.51,6.66h96.33C122.74,314.35,121.18,312.74,119.39,311.28z"/>
		<path class="st2" d="M132.83,342.16c0-1.82-0.1-3.57-0.27-5.27H84.51c1.73,2.06,2.6,4.29,2.6,6.68c0,4.59-1.64,8.14-4.92,10.62
			c-3.28,2.49-8.11,3.73-14.49,3.73c-7.69,0-13.62-1.59-17.79-4.78c-4.17-3.19-6.35-8.39-6.54-15.61H0.32l-0.28,0.84
			c-0.32,7.37,1.41,14.35,5.19,20.93h123.84C131.56,354.08,132.83,348.37,132.83,342.16z"/>
		<path class="st2" d="M145.41,316.04h124.58v-9.85H156.95c-1.22,0.72-2.4,1.48-3.5,2.28C150.33,310.73,147.67,313.26,145.41,316.04
			z"/>
		<path class="st2" d="M189.03,326.97c3.42-3.66,8.88-5.49,16.39-5.49h16.88v11.04h47.69v-13.17H143
			c-2.54,3.94-4.34,8.33-5.39,13.17h47.86C186.31,330.47,187.49,328.62,189.03,326.97z"/>
		<path class="st2" d="M269.99,336.89H222.3v8.36c-2.44,3-5.63,5.44-9.57,7.32c-3.94,1.88-8.25,2.81-12.94,2.81
			c-4.69,0-8.51-1.34-11.46-4.01s-4.43-6.16-4.43-10.48c0-1.4,0.11-2.73,0.32-4h-47.33c-0.25,2.1-0.4,4.28-0.4,6.54
			c0,5.78,0.83,11.05,2.4,15.87h132.12c-0.67-5.13-1.03-10.55-1.03-16.29V336.89z"/>
		<path class="st2" d="M269.99,285.61c0-17.44-5.84-30.85-17.51-40.23c-11.68-9.38-26.89-14.07-45.65-14.07
			c-20.07,0-36.2,4.67-48.39,14c-12.19,9.33-17.96,20.94-17.3,34.81l0.28,0.84l46,0.14c0-5.44,1.34-9.45,4.01-12.03
			c2.67-2.58,6.73-3.87,12.17-3.87c6.38,0,11.09,1.74,14.14,5.2c3.05,3.47,4.57,8.44,4.57,14.91v10.83H205
			c-18.72,0-33.56,2.7-44.53,8.11h109.52V285.61z"/>
		<path class="st2" d="M150.07,376.76c9.05,8.35,20.79,12.52,35.24,12.52c9.09,0,16.83-1.85,23.21-5.56
			c6.38-3.7,11.82-8.7,16.32-14.98c0.75,3.19,1.66,6.28,2.74,9.29c1.08,3,2.27,5.72,3.59,8.16l46.98,0.14
			c-2.72-6.84-4.76-13.74-6.12-20.68c-0.07-0.34-0.11-0.69-0.17-1.03H141.05C143.26,369.15,146.23,373.22,150.07,376.76z"/>
		<rect x="373.39" y="336.89" class="st2" width="47.55" height="22.41"/>
		<rect x="284.06" y="336.89" class="st2" width="47.4" height="22.41"/>
		<rect x="284.06" y="364.62" class="st2" width="47.4" height="21.71"/>
		<rect x="373.39" y="364.62" class="st2" width="47.55" height="21.71"/>
		<rect x="373.39" y="306.19" class="st2" width="47.55" height="9.85"/>
		<rect x="373.39" y="319.35" class="st2" width="47.55" height="13.17"/>
		<rect x="284.06" y="306.19" class="st2" width="47.4" height="9.85"/>
		<path class="st2" d="M331.47,276.89c2.44-2.81,5.37-5.02,8.79-6.61c3.42-1.59,7.34-2.39,11.75-2.39c7.03,0,12.35,1.81,15.97,5.42
			c3.61,3.61,5.42,9.78,5.42,18.5v12.47h47.55v-12.33c0-21.1-4.2-36.48-12.59-46.14c-8.39-9.66-20.04-14.49-34.96-14.49
			c-9,0-17.16,2.13-24.48,6.4c-7.31,4.27-13.46,10.2-18.43,17.79l-1.83-21.38h-44.59v70.14h47.4V276.89z"/>
		<rect x="284.06" y="319.35" class="st2" width="47.4" height="13.17"/>
	</g>
</g>
</svg>
